<?xml version="1.0" encoding="utf-8"?>
<!-- Generator: Adobe Illustrator 25.2.1, SVG Export Plug-In . SVG Version: 6.00 Build 0)  -->
<svg version="1.1" id="Layer_1" xmlns="http://www.w3.org/2000/svg" xmlns:xlink="http://www.w3.org/1999/xlink" x="0px" y="0px"
	 viewBox="0 0 936.1 186" style="enable-background:new 0 0 936.1 186;" xml:space="preserve">
<style type="text/css">
	.st0{fill:none;stroke:url(#SVGID_1_);stroke-width:8;stroke-linecap:round;stroke-linejoin:round;}
	.st1{fill:#FFFFFF;}
</style>
<g>
	
		<linearGradient id="SVGID_1_" gradientUnits="userSpaceOnUse" x1="2.0758" y1="138.4722" x2="108.8843" y2="59.1282" gradientTransform="matrix(1 0 0 -1 0 188)">
		<stop  offset="0" style="stop-color:#9A4DFF"/>
		<stop  offset="1" style="stop-color:#F600DD"/>
	</linearGradient>
	<path class="st0" d="M14,90.8l41.4-57.4 M14,90.8L55.5,145 M14,90.8c32.4,5.3,50.5,5.9,82.9,0 M55.5,33.4V145 M55.5,33.4l38.1,52.8
		 M96.9,90.8L55.5,145 M96.9,90.8L85.3,74.7"/>
</g>
<g>
	<g>
		<path class="st1" d="M193.5,130.9h-16.7l-37.7-57v57h-16.7V47.8h16.7l37.7,57v-57h16.7V130.9z"/>
		<path class="st1" d="M226.3,48v51.3c0,5.7,1.4,9.9,4.4,12.9c3,3,7,4.5,12.4,4.5c5.4,0,9.6-1.5,12.4-4.5c3-3,4.4-7.3,4.4-12.9V48
			h16.8v51.2c0,7-1.5,13-4.5,17.9c-3,4.9-7.1,8.5-12.2,11c-5.1,2.5-10.8,3.7-17.1,3.7c-6.1,0-11.8-1.2-16.8-3.7c-5-2.5-9-6.1-12-11
			c-3-4.9-4.4-10.8-4.4-17.9V48H226.3z"/>
		<path class="st1" d="M309.7,116.9H347v14h-56.6v-12.8L327.6,62h-37.1V48H347v12.8L309.7,116.9z"/>
		<path class="st1" d="M378.1,116.9h37.3v14h-56.6v-12.8L396,62h-37.1V48h56.6v12.8L378.1,116.9z"/>
		<path class="st1" d="M459.3,67.3c3.7-6.5,8.7-11.5,15.1-15.1c6.4-3.6,13.6-5.4,21.5-5.4c9.3,0,17.4,2.4,24.3,7.1
			c6.9,4.8,11.8,11.3,14.6,19.7h-19.1c-1.9-4-4.5-6.9-8.1-8.9c-3.4-2-7.4-3-12-3c-4.9,0-9.1,1.1-12.9,3.4c-3.7,2.2-6.7,5.4-8.8,9.6
			s-3.1,8.9-3.1,14.5c0,5.5,1,10.3,3.1,14.4s5,7.3,8.8,9.7c3.7,2.2,8.1,3.4,12.9,3.4c4.5,0,8.5-1,12-3c3.4-2,6.1-5,8.1-8.9h19.1
			c-2.8,8.5-7.7,15.1-14.5,19.8c-6.9,4.7-15.1,7.1-24.4,7.1c-7.9,0-15.1-1.8-21.5-5.4c-6.4-3.6-11.4-8.6-15.1-15s-5.5-13.7-5.5-21.9
			C453.8,81.1,455.7,73.8,459.3,67.3z"/>
		<path class="st1" d="M591.9,130.9l-18.3-32.3h-7.8v32.3h-16.7V48h31.1c6.4,0,11.9,1.1,16.4,3.4c4.5,2.2,7.9,5.3,10.1,9.2
			s3.4,8.1,3.4,12.9c0,5.5-1.6,10.4-4.8,14.8c-3.2,4.4-7.9,7.4-14.1,9.1l19.9,33.7H591.9z M565.8,86.1h14c4.5,0,7.9-1.1,10.1-3.3
			c2.2-2.2,3.4-5.2,3.4-9.1c0-3.8-1.1-6.8-3.4-8.9c-2.2-2.1-5.6-3.1-10.1-3.1h-13.9L565.8,86.1L565.8,86.1z"/>
		<path class="st1" d="M691.2,48L663.2,102v28.9h-16.7V102L618.4,48h18.7l17.8,37.9L672.7,48H691.2z"/>
		<path class="st1" d="M758.3,86.1c-2.1,3.9-5.4,7-9.9,9.4c-4.5,2.4-10.1,3.6-16.9,3.6h-13.9v31.8h-16.7V48h30.6
			c6.4,0,11.9,1.1,16.4,3.4c4.5,2.2,7.9,5.3,10.1,9.2s3.4,8.3,3.4,13.2C761.4,78,760.3,82.2,758.3,86.1z M740.9,82.5
			c2.2-2.1,3.4-5,3.4-8.9c0-8.1-4.5-12.1-13.6-12.1h-13.2v24.1h13.2C735.3,85.6,738.7,84.6,740.9,82.5z"/>
		<path class="st1" d="M829.6,48v13.4h-22.1v69.6h-16.7V61.4h-22.1V48H829.6z"/>
		<path class="st1" d="M858.8,126.2c-6.5-3.7-11.6-8.7-15.5-15.2c-3.8-6.5-5.7-13.8-5.7-21.9c0-8.1,1.9-15.3,5.7-21.8
			c3.8-6.5,8.9-11.5,15.5-15.2c6.5-3.7,13.6-5.5,21.4-5.5c7.8,0,15,1.8,21.5,5.5c6.5,3.7,11.6,8.7,15.3,15.2
			c3.7,6.5,5.7,13.7,5.7,21.8c0,8.1-1.9,15.5-5.7,21.9s-8.9,11.5-15.4,15.2c-6.5,3.7-13.6,5.5-21.4,5.5S865.3,129.9,858.8,126.2z
			 M893.4,113.5c3.8-2.2,6.8-5.5,8.9-9.7c2.2-4.2,3.2-9.1,3.2-14.6c0-5.5-1-10.4-3.2-14.5s-5.1-7.3-8.9-9.6
			c-3.8-2.2-8.2-3.4-13.2-3.4c-5,0-9.4,1.1-13.2,3.4c-3.8,2.2-6.9,5.4-8.9,9.6c-2.2,4.1-3.2,9-3.2,14.5c0,5.6,1,10.5,3.2,14.6
			c2.2,4.2,5.1,7.4,8.9,9.7s8.3,3.4,13.2,3.4C885.2,116.9,889.6,115.8,893.4,113.5z"/>
	</g>
</g>
</svg>
